<svg width="85" height="54" viewBox="0 0 85 54" fill="none" xmlns="http://www.w3.org/2000/svg">
<path d="M22.7913 32.9062V36.6118C22.7913 40.8991 19.3168 44.3721 15.031 44.3721H12.8539V34.2379C12.8539 33.0255 12.83 32.6378 12.1113 31.9876L5.89295 26.4404C4.95349 25.5919 4.28842 25.477 3.82764 25.6828C4.24368 25.3458 4.77306 25.146 5.35165 25.146H15.0295C19.3168 25.1475 22.7913 28.622 22.7913 32.9062Z" fill="#FFBA53"/>
<path d="M0.781189 10.7786C0.754348 10.7786 0.727506 10.7772 0.699173 10.7742C0.271198 10.7294 -0.0404632 10.3462 0.00427287 9.91822C0.556018 4.61103 6.24048 0.434175 10.9974 0.0032174C11.4299 -0.0355538 11.8056 0.280581 11.8444 0.708556C11.8832 1.13802 11.5671 1.51679 11.1391 1.55556C6.99354 1.93134 2.0159 5.65636 1.55512 10.0808C1.51486 10.4804 1.17636 10.7786 0.781189 10.7786Z" fill="#F63B4B"/>
<path d="M22.247 5.72798C22.247 7.25945 21.0049 8.50013 19.4749 8.50013H16.7549C15.6127 3.32715 12.1829 3.8938 8.11194 3.90573C9.40332 3.29434 10.8483 2.95435 12.3693 2.95435H19.4734C20.2384 2.95435 20.9318 3.26601 21.4343 3.76705C21.9369 4.26809 22.247 4.96299 22.247 5.72798Z" fill="#FFBA53"/>
<path d="M22.2468 12.8023V12.935C22.2468 14.9452 20.6184 16.5736 18.6098 16.5736H16.9307C17.0798 15.5804 17.1603 14.4158 17.1603 13.0454C17.1603 11.5109 17.0664 10.2315 16.8875 9.16528H18.6098C20.6184 9.16677 22.2468 10.7952 22.2468 12.8023Z" fill="#FFBA53"/>
<path d="M22.2467 20.0667V20.1666C22.2467 21.698 21.0045 22.9387 19.4746 22.9387H12.369C11.0746 22.9387 9.83842 22.6927 8.70361 22.2453C12.5778 22.2766 15.7779 22.4078 16.8083 17.29H19.4731C21.0045 17.2915 22.2467 18.5352 22.2467 20.0667Z" fill="#FFBA53"/>
<path d="M12.8539 34.2254V51.9125C12.8539 53.7094 11.904 53.7273 11.0659 52.9877L3.65766 46.4383C3.20433 46.0387 2.91504 45.1589 2.91504 44.1881V27.3405C2.91504 26.9752 3.14618 25.9761 3.82616 25.6733C3.82616 25.6719 3.82616 25.6719 3.82765 25.6719C4.28844 25.4646 4.95351 25.5794 5.89297 26.4294L12.1113 31.9767C12.8286 32.6253 12.8539 33.013 12.8539 34.2254Z" fill="#11354F"/>
<path d="M85 19.0826V23.0403C85 23.9618 84.6674 24.7566 84.0128 25.4053C83.3686 26.054 82.5738 26.385 81.6537 26.385C80.7322 26.385 79.9388 26.0555 79.2917 25.4023C78.64 24.7537 78.309 23.9588 78.309 23.0403V19.4823C78.5222 19.5166 78.7399 19.5464 78.9576 19.5687C79.3468 19.6135 79.7435 19.6388 80.1446 19.6448C80.2252 19.6493 80.3027 19.6493 80.3832 19.6493C80.5204 19.6493 80.6576 19.6478 80.7933 19.6403V23.0403C80.7933 23.2804 80.8753 23.4727 81.0483 23.6457C81.2228 23.8246 81.4092 23.9007 81.6552 23.9007C81.8953 23.9007 82.0877 23.8202 82.2606 23.6487C82.4351 23.4742 82.5156 23.2818 82.5156 23.0418V19.4733C82.7349 19.439 82.9511 19.3958 83.1658 19.3481C83.5684 19.2601 83.9636 19.1527 84.3498 19.026C84.5646 18.9559 84.7778 18.8798 84.9895 18.8008C84.9955 18.8917 85 18.9857 85 19.0826Z" fill="#F63B4B"/>
<path d="M84.988 18.8011C84.7762 18.8816 84.563 18.9577 84.3482 19.0263C83.962 19.153 83.5668 19.2604 83.1642 19.3484C82.9495 19.3961 82.7333 19.4393 82.5141 19.4736V19.0844C82.5141 18.8443 82.4335 18.652 82.2591 18.479C82.0891 18.3105 81.8967 18.2314 81.6536 18.2314C81.4076 18.2314 81.2152 18.309 81.0467 18.479C80.8737 18.652 80.7917 18.8443 80.7917 19.0844V19.6421C80.656 19.6481 80.5188 19.6511 80.3816 19.6511C80.3011 19.6511 80.2236 19.6511 80.143 19.6466C79.7404 19.6406 79.3452 19.6153 78.956 19.5705C78.7383 19.5482 78.5206 19.5198 78.3074 19.484V19.0844C78.3074 18.1703 78.6369 17.3755 79.2901 16.7238C79.9388 16.0752 80.7336 15.7456 81.6521 15.7456C82.5707 15.7456 83.364 16.0752 84.0127 16.7238C84.6002 17.3084 84.9253 18.0048 84.988 18.8011Z" fill="#FFBA53"/>
<path d="M75.201 18.5574C74.9535 18.4486 74.7104 18.3323 74.4748 18.207C73.5786 17.7358 72.754 17.1587 72.0203 16.4966C71.7892 16.2878 71.567 16.0716 71.3552 15.8464H72.1649C73.006 15.8464 73.7322 16.1477 74.3242 16.7412C74.8372 17.2526 75.1324 17.861 75.201 18.5574Z" fill="#FFBA53"/>
<path d="M75.201 18.5589V18.5574C74.9535 18.4486 74.7104 18.3323 74.4748 18.207C73.5786 17.7358 72.754 17.1587 72.0203 16.4966C71.7892 16.2878 71.567 16.0716 71.3552 15.8464H70.2249C69.8909 15.8464 69.5896 15.9672 69.3406 16.2073C69.105 16.4429 68.9797 16.7471 68.9797 17.0856V25.1411C68.9797 25.4736 69.1005 25.7764 69.3496 26.0328C69.5896 26.2625 69.8909 26.3863 70.2249 26.3863C70.5544 26.3863 70.8542 26.2625 71.1107 26.0164C71.3418 25.7764 71.4641 25.4736 71.4641 25.1411V21.9842H72.1649C73.006 21.9842 73.7322 21.683 74.3242 21.0895C74.9177 20.4945 75.2189 19.7683 75.2189 18.9302V18.8915C75.2189 18.7781 75.213 18.6678 75.201 18.5589ZM72.7331 18.9302C72.7331 19.0943 72.6839 19.2151 72.5631 19.3344C72.4483 19.4492 72.329 19.4984 72.1649 19.4984H71.4641V18.3308H72.1649C72.329 18.3308 72.4483 18.38 72.5676 18.4993C72.6839 18.6141 72.7331 18.7304 72.7331 18.8915V18.9302Z" fill="#F63B4B"/>
<path d="M63.701 21.0542L65.5114 17.5395C65.6679 17.2383 65.6963 16.9072 65.5949 16.6C65.4979 16.2779 65.2892 16.0244 64.9835 15.8574C64.6837 15.6978 64.3542 15.668 64.0291 15.7754C63.7085 15.8783 63.4595 16.093 63.3029 16.3927L62.2963 18.3432L61.2927 16.3927C61.1391 16.093 60.8871 15.8783 60.5665 15.7754C60.2429 15.668 59.9119 15.6978 59.6062 15.8589C59.3065 16.0229 59.0977 16.2779 59.0052 16.5851C58.9009 16.9072 58.9292 17.2368 59.0858 17.5395L60.8991 21.0542L59.0843 24.569C58.9307 24.8702 58.9023 25.2013 59.0008 25.5025C59.0977 25.8365 59.3124 26.0975 59.6122 26.2511C59.7971 26.348 59.9909 26.3972 60.1848 26.3972C60.31 26.3972 60.4323 26.3763 60.5546 26.3376C60.8812 26.2406 61.1377 26.0274 61.2957 25.7202L62.2993 23.7712L63.3059 25.7202C63.4639 26.0274 63.7204 26.2406 64.0321 26.3331C64.3557 26.4375 64.6867 26.4091 64.979 26.2556C65.2862 26.0975 65.4994 25.8365 65.5919 25.5234C65.6963 25.2013 65.6679 24.8717 65.5143 24.569L63.701 21.0542ZM64.4511 25.1163L64.3587 25.164L64.4511 25.1148C64.4511 25.1163 64.4511 25.1163 64.4511 25.1163Z" fill="#F63B4B"/>
<path d="M71.2645 6.25604C71.0259 6.58858 70.668 6.77349 70.2579 6.77349C69.6913 6.77349 69.2528 6.45735 69.0769 5.93096C69.0351 5.81017 68.968 5.71622 68.8622 5.63719C68.8443 5.62526 68.8279 5.61184 68.8085 5.60289C69.0471 4.79019 69.3811 4.01476 69.7986 3.29004C69.985 3.37653 70.1655 3.48539 70.3384 3.61214C70.8648 3.99836 71.2361 4.50835 71.4434 5.12571C71.5732 5.52088 71.509 5.92052 71.2645 6.25604Z" fill="#FFBA53"/>
<path d="M71.7608 10.9727C71.6042 11.7496 71.2075 12.3998 70.5797 12.9023C70.2845 13.1379 69.9669 13.3169 69.6298 13.4421C69.2347 12.704 68.9245 11.9181 68.7157 11.0965C68.8186 11.0696 68.9111 11.0219 68.9991 10.9563C69.1571 10.837 69.2556 10.6938 69.3063 10.5045C69.3823 10.2137 69.3376 9.97359 69.1571 9.73798C68.9842 9.50982 68.7813 9.40544 68.5025 9.39798C68.4771 9.39798 68.4518 9.39649 68.4264 9.39649C68.4026 9.10571 68.3892 8.81045 68.3892 8.51221C68.3892 7.95897 68.4324 7.41319 68.5159 6.88232C69.5538 6.89276 70.4172 7.3103 71.0778 8.1245C71.7488 8.95062 71.98 9.91096 71.7608 10.9727Z" fill="#FFBA53"/>
<path d="M69.6301 13.4617C69.2603 13.5989 68.8651 13.6675 68.4491 13.6675C67.7005 13.6675 67.022 13.4378 66.4255 12.983C65.8469 12.5401 65.4473 11.9615 65.24 11.2636C65.1237 10.8744 65.1893 10.4808 65.4249 10.1542C65.6635 9.82016 66.0214 9.63525 66.4345 9.63525C67.0235 9.63525 67.4708 9.97226 67.6304 10.5315C67.6841 10.7134 67.7795 10.8551 67.9361 10.9758C68.0897 11.0951 68.2493 11.1503 68.4446 11.1503C68.5445 11.1503 68.6355 11.1399 68.7175 11.116C68.9248 11.9377 69.2349 12.7235 69.6301 13.4617Z" fill="#F63B4B"/>
<path d="M69.7985 3.29587C69.3795 4.02208 69.0454 4.79751 68.8083 5.60872C68.7204 5.55504 68.6294 5.53118 68.525 5.53118H68.4877C68.3192 5.53118 68.1999 5.58039 68.0851 5.69968C67.9584 5.82644 67.9047 5.95766 67.9047 6.13064V6.32748C67.9047 6.493 67.9554 6.61528 68.0747 6.7301C68.1984 6.85089 68.3267 6.90308 68.4997 6.90308H68.5161C68.4326 7.43395 68.3893 7.97973 68.3893 8.53297C68.3893 8.82972 68.4012 9.12497 68.4266 9.41725C67.6079 9.38444 66.8966 9.07726 66.318 8.50314C65.7111 7.90666 65.4039 7.16852 65.4039 6.31108V6.13064C65.4039 5.27469 65.7081 4.53505 66.3091 3.92963C66.9056 3.32718 67.6407 3.02148 68.4892 3.02148H68.5265C68.9783 3.02148 69.4048 3.11394 69.7985 3.29587Z" fill="#F63B4B"/>
<path d="M62.5394 4.3293C62.5394 4.66781 62.4141 4.97052 62.1785 5.20762C61.9489 5.44621 61.6432 5.57744 61.3002 5.57744H60.3652V12.4042C60.3652 12.7382 60.2415 13.0394 60.0103 13.2795C59.7538 13.527 59.4541 13.6493 59.1246 13.6493C58.7861 13.6493 58.4848 13.5241 58.2462 13.2884C58.0061 13.0484 57.8794 12.7427 57.8794 12.4042V5.57595H56.9504C56.6119 5.57595 56.3047 5.44621 56.0646 5.20613C55.829 4.97052 55.7037 4.66631 55.7037 4.32781C55.7037 3.99975 55.8275 3.69852 56.0571 3.45844C56.3136 3.21239 56.6164 3.08862 56.9519 3.08862H61.3017C61.6402 3.08862 61.9444 3.21388 62.18 3.44949C62.4186 3.70002 62.5394 4.00124 62.5394 4.3293Z" fill="#F63B4B"/>
<path d="M55.4441 24.2426C55.6842 24.4827 55.811 24.7854 55.811 25.1209C55.811 25.4579 55.6842 25.7621 55.4441 26.0052C55.2055 26.2408 54.9043 26.3661 54.5658 26.3661H51.4388C51.1047 26.3661 50.8035 26.2423 50.5634 26.0126C50.3159 25.7562 50.1936 25.4534 50.1936 25.1209V17.1862C50.1936 16.8567 50.3144 16.5569 50.547 16.3168C50.8035 16.0693 51.1047 15.947 51.4388 15.947H54.5658C54.9043 15.947 55.2055 16.0723 55.4441 16.3079C55.6842 16.5495 55.811 16.8507 55.811 17.1862C55.811 17.5292 55.6812 17.8349 55.4352 18.072C55.213 18.3016 54.9088 18.4314 54.5658 18.4314H52.6765V19.5945H54.1841C54.5181 19.5945 54.8193 19.7153 55.0594 19.9479C55.3054 20.1925 55.4307 20.4952 55.4307 20.8337C55.4307 21.1722 55.3054 21.4749 55.0683 21.712C54.8283 21.9521 54.5226 22.0788 54.1841 22.0788H52.6765V23.8817H54.5658C54.9043 23.8787 55.2055 24.004 55.4441 24.2426Z" fill="#F63B4B"/>
<path d="M52.6765 4.26067V12.4175C52.6765 12.7516 52.5557 13.0528 52.3231 13.2929C52.0666 13.5404 51.7668 13.6627 51.4373 13.6627C51.1033 13.6627 50.802 13.5419 50.562 13.3093L50.5456 13.2929C50.3144 13.0528 50.1921 12.7516 50.1921 12.4175V4.26067C50.1921 3.92217 50.3174 3.61946 50.553 3.38236C50.8006 3.14227 51.1033 3.02148 51.4373 3.02148C51.7668 3.02148 52.0666 3.14227 52.3067 3.3749C52.5512 3.61797 52.6765 3.92217 52.6765 4.26067Z" fill="#F63B4B"/>
<path d="M35.732 37.8458V45.0081C35.6246 45.0081 35.5173 45.0081 35.4099 45.0066C30.1639 44.8411 25.908 40.5389 25.7932 35.2914C25.7887 35.1423 25.7887 34.9917 25.7932 34.8425C25.8632 31.7244 29.6718 30.2362 31.8758 32.4402C32.5572 33.1217 32.9778 34.0448 32.9539 35.0081C32.9494 35.184 32.9643 35.3645 32.9942 35.5494C33.1999 36.7453 34.1871 37.6848 35.392 37.8264C35.5083 37.8399 35.6217 37.8458 35.732 37.8458Z" fill="#009298"/>
<path d="M42.7631 42.0979C40.9647 43.8963 38.4759 45.0042 35.7321 45.0057V37.8435C36.4985 37.8435 37.1949 37.5333 37.6975 37.0308L42.7631 42.0979Z" fill="#FFBA53"/>
<path d="M42.7629 42.1192L37.6973 37.0536C38.2714 36.478 38.595 35.6534 38.4906 34.7572C38.3505 33.5553 37.4155 32.5651 36.224 32.3548C36.0391 32.322 35.8587 32.3071 35.6827 32.3116H35.629C34.6881 32.3116 33.7934 31.8956 33.1268 31.229C30.9198 29.0235 32.411 25.212 35.5306 25.1494C35.6738 25.1449 35.8184 25.1449 35.9631 25.1494C41.2046 25.2686 45.5023 29.5245 45.6678 34.7646C45.7588 37.6382 44.6314 40.2493 42.7629 42.1192Z" fill="#11354F"/>
<path d="M35.7647 12.9269C35.7364 12.9269 35.7051 12.9269 35.6768 12.9255C35.6768 12.9269 35.6768 12.9269 35.6768 12.9299C35.7081 12.9284 35.7364 12.9269 35.7647 12.9269Z" fill="#FFCC60"/>
<path d="M35.6769 12.9285C35.659 13.0806 35.6381 13.2417 35.6098 13.4102C35.4517 14.3988 35.1013 15.644 34.3482 16.8727C34.1842 17.1397 34.0038 17.4066 33.798 17.6705C32.772 18.9873 31.5194 19.8179 30.2743 20.3353C28.628 21.0243 26.9951 21.1614 25.9364 21.16H25.9319C26.6984 16.5849 30.5173 13.0836 35.1624 12.9255C35.2713 12.93 35.3801 12.9315 35.4905 12.9315C35.5516 12.93 35.6158 12.93 35.6769 12.9285Z" fill="#FFBA53"/>
<path d="M35.677 12.928C35.677 12.9295 35.677 12.9295 35.677 12.9325C35.677 12.934 35.677 12.934 35.677 12.937C35.6159 12.9384 35.5518 12.9384 35.4921 12.9384C35.3818 12.9384 35.2729 12.937 35.1641 12.9325C35.2729 12.928 35.3818 12.9265 35.4921 12.9265C35.5518 12.925 35.6159 12.925 35.677 12.928Z" fill="#FFBA53"/>
<path d="M35.7322 22.8584V22.8569H25.7919C25.7919 22.2784 25.8411 21.7087 25.935 21.1585H25.9365C26.9953 21.16 28.6266 21.0228 30.2744 20.3338C31.5196 19.8164 32.7722 18.9858 33.7981 17.6691C34.0039 17.4051 34.1844 17.1382 34.3484 16.8713C35.1014 15.6425 35.4519 14.3974 35.6099 13.4087C35.6383 13.2402 35.6592 13.0791 35.6771 12.927C35.7084 12.927 35.7367 12.927 35.765 12.9255H35.7874C35.7978 13.0016 35.8053 13.0791 35.8187 13.1597V13.1611C35.8292 13.2432 35.8411 13.3252 35.856 13.4117C35.8709 13.5041 35.8873 13.5981 35.9052 13.6965C35.9112 13.7278 35.9171 13.7606 35.9261 13.7934C35.938 13.859 35.9529 13.9261 35.9678 13.9917C35.9991 14.1274 36.032 14.2646 36.0677 14.4033C36.105 14.545 36.1483 14.6866 36.193 14.8313C36.2631 15.0535 36.3421 15.2787 36.4346 15.5098C36.4525 15.553 36.4689 15.5963 36.4898 15.641C36.5166 15.7066 36.5434 15.7708 36.5733 15.8364C36.6001 15.9005 36.6284 15.9616 36.6598 16.0257C36.6806 16.069 36.7 16.1122 36.7239 16.1555C36.7716 16.2539 36.8223 16.3538 36.8775 16.4552C36.9103 16.5193 36.9446 16.5805 36.9819 16.6416C37.0251 16.7192 37.0698 16.7982 37.1175 16.8727C37.2816 17.1397 37.462 17.4066 37.6678 17.6691C38.6938 18.9873 39.9464 19.8164 41.1915 20.3353C42.8408 21.0228 44.4736 21.1614 45.5339 21.1585C45.6263 21.7102 45.6756 22.2784 45.6756 22.8584H35.7322Z" fill="#F63B4B"/>
<path d="M35.7871 12.9255C35.7871 12.927 35.7871 12.927 35.7871 12.93H35.7647C35.7364 12.9315 35.7081 12.9315 35.6768 12.9315C35.6768 12.93 35.6768 12.93 35.6768 12.927C35.7051 12.9255 35.7364 12.9255 35.7647 12.9255H35.7871Z" fill="#F63B4B"/>
<path d="M35.9049 13.714C35.887 13.6156 35.8706 13.5217 35.8557 13.4292C35.8662 13.4903 35.8766 13.5545 35.8885 13.6186C35.8915 13.6484 35.8975 13.6812 35.9049 13.714Z" fill="#F63B4B"/>
<path d="M45.5323 21.1629C44.472 21.1674 42.8392 21.0272 41.1899 20.3398C39.9447 19.8209 38.6921 18.9917 37.6662 17.6735C37.4604 17.4111 37.28 17.1441 37.1159 16.8772C37.0682 16.8012 37.0235 16.7236 36.9802 16.6461C36.9429 16.5849 36.9086 16.5223 36.8758 16.4597C36.8207 16.3598 36.7685 16.2584 36.7222 16.16C36.6999 16.1167 36.679 16.0735 36.6581 16.0302C36.6268 15.9661 36.5985 15.905 36.5716 15.8408C36.5403 15.7752 36.515 15.7111 36.4881 15.6455C36.4672 15.6008 36.4508 15.5575 36.4329 15.5143C36.3405 15.2831 36.26 15.0565 36.1914 14.8358C36.1466 14.6896 36.1034 14.548 36.0661 14.4078C36.0288 14.2676 35.996 14.1304 35.9662 13.9962C35.9513 13.9306 35.9379 13.8635 35.9244 13.7979C35.9095 13.7323 35.8976 13.6682 35.8872 13.6055C35.8752 13.5414 35.8648 13.4788 35.8544 13.4161C35.8394 13.3326 35.8275 13.2476 35.8171 13.1656V13.1641C35.8052 13.0836 35.7962 13.0061 35.7858 12.93C35.8469 12.9315 35.911 12.9315 35.9707 12.9315C36.0676 12.9315 36.1615 12.93 36.2585 12.9255H36.2734C40.9334 13.0732 44.7628 16.582 45.5323 21.1629Z" fill="#FFBA53"/>
<path d="M36.2609 12.93C36.164 12.9345 36.07 12.936 35.9731 12.936C35.9135 12.936 35.8493 12.936 35.7882 12.9345C35.7882 12.933 35.7882 12.933 35.7882 12.93C35.8493 12.9255 35.9135 12.9255 35.9731 12.9255C36.07 12.9255 36.1655 12.9285 36.2609 12.93Z" fill="#FFBA53"/>
<path d="M44.6046 7.55708C44.2274 8.30566 43.7636 9.00354 43.2208 9.62687C41.5059 11.5997 39.0365 12.8687 36.2748 12.9537H36.2599C36.1659 12.9522 36.069 12.9493 35.9721 12.9493C35.9124 12.9493 35.8483 12.9493 35.7872 12.9537H35.7648C35.7365 12.9537 35.7081 12.9522 35.6768 12.9522C35.6157 12.9508 35.5516 12.9508 35.4919 12.9508C35.3816 12.9508 35.2727 12.9522 35.1639 12.9567C32.4305 12.8643 29.9834 11.6117 28.2745 9.66862C27.5542 8.84846 26.9637 7.90304 26.5432 6.86516C27.6094 5.97342 29.199 5.40527 30.9751 5.40527C32.6035 5.40527 34.0783 5.88097 35.1296 6.64744C35.1296 6.64744 35.131 6.64744 35.131 6.64894C35.3622 6.81446 35.5724 6.99788 35.7588 7.19173C36.2927 7.69576 36.9921 8.09689 37.7958 8.37127C38.6041 8.64566 39.5167 8.79776 40.4695 8.79776C40.5471 8.79776 40.6231 8.79328 40.6977 8.79179C41.7177 8.76346 42.6929 8.52785 43.6055 8.15058C43.9112 8.02382 44.2333 7.87023 44.4854 7.67041C44.5286 7.63611 44.5674 7.59585 44.6046 7.55708Z" fill="#F63B4B"/>
<path d="M36.2599 12.9315C36.1629 12.936 36.069 12.9375 35.972 12.9375C35.9124 12.9375 35.8483 12.9375 35.7871 12.936H35.7648C35.7364 12.9375 35.7081 12.9375 35.6768 12.9375C35.6157 12.939 35.5515 12.939 35.4919 12.939C35.3815 12.939 35.2727 12.9375 35.1638 12.933C35.2727 12.9285 35.3815 12.927 35.4919 12.927C35.5515 12.927 35.6157 12.927 35.6768 12.9285C35.7081 12.9285 35.7364 12.93 35.7648 12.93H35.7871C35.8483 12.9255 35.9124 12.9255 35.972 12.9255C36.069 12.927 36.1644 12.93 36.2599 12.9315Z" fill="#F63B4B"/>
<path d="M45.5292 4.71847H45.5306C45.383 5.60276 45.1206 6.44528 44.7612 7.23115C44.7761 7.12229 44.7463 7.01194 44.6613 6.91054C44.5837 6.81361 44.4719 6.74502 44.3556 6.68537C44.3287 6.67344 44.3004 6.65853 44.2736 6.64809C42.5796 5.8667 40.562 6.45871 38.8545 6.87773C37.6079 7.18343 36.2524 7.33553 35.1325 6.64809C35.1325 6.6466 35.131 6.6466 35.131 6.6466C34.0782 5.88012 32.6049 5.40443 30.9765 5.40443C29.2005 5.40443 27.6109 5.97257 26.5447 6.86431C26.2643 6.18731 26.0585 5.47004 25.9362 4.72145C25.8423 4.1712 25.7931 3.60156 25.7931 3.02298H35.732V3.02148H45.6753C45.6723 3.59858 45.6231 4.16673 45.5292 4.71847Z" fill="#FFBA53"/>
<path d="M44.7626 7.20832C44.7134 7.31866 44.6597 7.4305 44.6045 7.53489C44.5673 7.57366 44.5285 7.61243 44.4882 7.64822C44.2362 7.84655 43.9141 8.00163 43.6084 8.12839C42.6958 8.50566 41.7191 8.74127 40.7006 8.7696C40.626 8.7711 40.5514 8.77557 40.4724 8.77557C39.518 8.77557 38.6054 8.62347 37.7987 8.34908C36.9949 8.0747 36.2956 7.67506 35.7617 7.16954C35.5753 6.9742 35.3665 6.79227 35.1339 6.62675C36.2538 7.31419 37.6093 7.16209 38.856 6.85639C40.5619 6.43736 42.581 5.84536 44.275 6.62675C44.3018 6.63718 44.3302 6.65061 44.357 6.66403C44.4733 6.72367 44.5851 6.79376 44.6627 6.8892C44.7477 6.98762 44.776 7.09946 44.7626 7.20832Z" fill="#11354F"/>
<path d="M12.025 16.9266C12.025 17.1175 12.1771 17.2711 12.3695 17.2711H16.8103C15.7784 22.3889 12.5798 22.2577 8.70561 22.2263C7.623 21.7984 6.63434 21.187 5.7754 20.4324C5.55023 20.2356 5.33102 20.0238 5.12375 19.8076C4.0307 18.6549 3.20606 17.2413 2.7587 15.671C2.51116 14.7972 2.37695 13.8786 2.37695 12.9272C2.37695 12.2979 2.4366 11.6776 2.54993 11.0811C3.14492 7.88993 5.25945 5.23111 8.11361 3.88456C12.1846 3.87263 15.6144 3.30597 16.7566 8.48044H12.3695C12.1771 8.48044 12.025 8.63702 12.025 8.8264C12.025 9.01727 12.1771 9.17236 12.3695 9.17236H16.8878C17.0668 10.2386 17.1607 11.518 17.1607 13.0525C17.1607 14.4229 17.0802 15.5875 16.9311 16.5807H12.3695C12.1771 16.5807 12.025 16.7342 12.025 16.9266Z" fill="#009298"/>
<path d="M54.0963 35.0248L53.6385 35.7614C53.4193 35.8599 53.2046 35.9717 52.9943 36.097C52.7155 36.2565 52.4515 36.4384 52.1995 36.6383C52.1115 36.7084 52.0251 36.7799 51.9415 36.8515C51.4151 37.3093 50.9588 37.8402 50.5875 38.4322C50.501 38.5664 50.4235 38.7021 50.3474 38.8438C50.2938 38.7632 50.2565 38.6738 50.2326 38.5768C50.1819 38.3636 50.2177 38.1489 50.3385 37.9595C52.7692 34.0749 52.7796 34.06 52.7841 34.054C52.8497 33.9526 52.875 33.8452 52.8616 33.7215C52.8497 33.5947 52.8064 33.4963 52.7259 33.4098L52.6886 33.3785C52.5828 33.2711 52.465 33.2219 52.3188 33.2219C52.28 33.2219 52.1936 33.2309 52.04 33.292C51.9192 33.3576 51.8416 33.4516 51.7954 33.5858C51.6836 33.9273 51.4047 34.1256 51.0319 34.1256C50.7635 34.1256 50.5294 34.0078 50.3713 33.7945C50.2088 33.5753 50.1655 33.3144 50.252 33.0609C50.3922 32.6538 50.6338 32.3153 50.9708 32.0498C51.3167 31.7829 51.7074 31.6323 52.1354 31.598C52.1443 31.5965 52.1533 31.595 52.1622 31.595L52.21 31.592H52.3203C52.9108 31.592 53.4238 31.8038 53.8413 32.2213L53.8652 32.2452C54.241 32.621 54.4512 33.0788 54.4885 33.6081C54.5258 34.1301 54.3946 34.6058 54.0963 35.0248Z" fill="#11354F"/>
<path d="M54.3616 38.8324C54.4421 38.7027 54.4838 38.5536 54.4838 38.394C54.4838 38.1748 54.4018 37.975 54.2423 37.8094C54.0842 37.6514 53.8829 37.5694 53.6577 37.5694H52.5319L52.5334 37.5679H53.6816C53.9038 37.5679 54.1021 37.6499 54.2572 37.805C54.4138 37.9675 54.4943 38.1658 54.4943 38.3821C54.4943 38.5461 54.4495 38.6997 54.3616 38.8324Z" fill="#11354F"/>
<path d="M59.2811 37.5652C59.1305 37.5652 59.0112 37.5145 58.9068 37.4057C58.7964 37.2923 58.7457 37.1626 58.7457 36.9971V37.0209C58.7457 37.179 58.7934 37.3043 58.8993 37.4131C59.0007 37.519 59.1111 37.5667 59.2557 37.5667H59.2855C59.293 37.5667 59.3019 37.5667 59.3094 37.5652H59.2811Z" fill="#11354F"/>
<path d="M61.4716 33.6907V36.9997C61.4716 37.544 61.2986 38.0212 60.9571 38.4223C61.2658 38.045 61.4298 37.6051 61.4462 37.1056C61.3209 36.9848 61.1927 36.8685 61.0585 36.7566C60.9317 36.6508 60.802 36.5479 60.6693 36.4524C60.6365 36.4286 60.6037 36.4047 60.5709 36.3824C60.4441 36.2944 60.3129 36.2079 60.1817 36.1303C60.0713 36.0617 59.9565 35.9976 59.8417 35.9365V33.6907C59.8417 33.5282 59.7895 33.3985 59.6776 33.2807C59.5747 33.1733 59.4569 33.1226 59.3093 33.1226H59.281C59.1319 33.1226 59.0126 33.1733 58.9067 33.2836C58.7978 33.397 58.7456 33.5282 58.7456 33.6907V35.4697C58.6189 35.428 58.4877 35.3892 58.3564 35.3549C58.2282 35.3191 58.097 35.2908 57.9657 35.264C57.9329 35.2565 57.9001 35.2505 57.8673 35.2461C57.7391 35.2192 57.6093 35.1983 57.4781 35.1819C57.3573 35.1655 57.2365 35.1536 57.1143 35.1447V33.6907C57.1143 33.0883 57.3275 32.5649 57.7465 32.1384C58.1685 31.7089 58.6845 31.4912 59.281 31.4912H59.3093C59.9028 31.4912 60.4188 31.7089 60.8393 32.1384C61.2583 32.5649 61.4716 33.0883 61.4716 33.6907Z" fill="#11354F"/>
<path d="M67.5693 37.5777H66.3987L67.9839 35.0248C68.2821 34.6058 68.4148 34.1286 68.376 33.6081C68.3373 33.0803 68.1285 32.621 67.7527 32.2452L67.7289 32.2213C67.3113 31.8038 66.7983 31.592 66.2078 31.592C66.2034 31.592 66.1974 31.592 66.1929 31.592H66.099L66.0527 31.595C66.0438 31.5965 66.0349 31.598 66.0259 31.5995C65.5979 31.6323 65.2072 31.7844 64.8613 32.0513C64.5243 32.3168 64.2827 32.6553 64.1425 33.0624C64.056 33.3159 64.0993 33.5783 64.2618 33.796C64.4199 34.0093 64.654 34.1271 64.9224 34.1271C65.2952 34.1271 65.5741 33.9288 65.6874 33.5858C65.7336 33.4516 65.8112 33.3576 65.932 33.292C66.0856 33.2309 66.172 33.2219 66.2108 33.2219C66.357 33.2219 66.4748 33.2711 66.5806 33.377L66.6164 33.4083C66.6984 33.4948 66.7402 33.5917 66.7521 33.72C66.7655 33.8438 66.7402 33.9511 66.6746 34.0525C66.6701 34.0585 66.6612 34.0734 64.229 37.958C64.1082 38.1474 64.0724 38.3621 64.1246 38.5753C64.1753 38.7871 64.2961 38.9616 64.4765 39.0809L64.4915 39.0898C64.6152 39.1629 64.7509 39.2016 64.909 39.2076H67.5738C67.796 39.2076 67.9943 39.1256 68.1538 38.966C68.306 38.808 68.3865 38.6096 68.3865 38.3904C68.3865 38.1742 68.306 37.9774 68.1494 37.8148C67.9913 37.6597 67.7915 37.5777 67.5693 37.5777Z" fill="#11354F"/>
<path d="M73.7175 31.7283C73.5624 31.5732 73.3626 31.4912 73.1419 31.4912C72.9212 31.4912 72.7214 31.5732 72.5663 31.7283L71.1466 33.1479C70.9916 33.303 70.9095 33.5028 70.9095 33.7235C70.9095 33.9398 70.9901 34.1381 71.1511 34.3036C71.3092 34.4557 71.5075 34.5362 71.7267 34.5362C71.9429 34.5362 72.1398 34.4557 72.3023 34.2991L72.3292 34.2723V38.3985C72.3292 38.6177 72.4097 38.8175 72.5663 38.9785C72.7214 39.1336 72.9212 39.2156 73.1419 39.2156C73.3626 39.2156 73.5624 39.1336 73.7175 38.9785C73.8755 38.8205 73.9591 38.6192 73.9591 38.3985V32.3024C73.9591 32.0802 73.8741 31.8789 73.7175 31.7283Z" fill="#11354F"/>
<path d="M61.4462 37.1116C61.4298 37.6111 61.2658 38.051 60.9571 38.4283C60.9198 38.473 60.881 38.5163 60.8393 38.5595C60.4188 38.9875 59.9028 39.2052 59.3093 39.2052H59.281C58.6845 39.2052 58.1685 38.9875 57.7465 38.5595C57.3275 38.1315 57.1143 37.6096 57.1143 37.0057V35.1506C57.2365 35.1596 57.3573 35.1715 57.4781 35.1879C57.6093 35.2043 57.7391 35.2252 57.8673 35.252C57.9001 35.2565 57.9329 35.2625 57.9657 35.2699C58.097 35.2968 58.2282 35.3251 58.3564 35.3609C58.4877 35.3952 58.6189 35.434 58.7456 35.4757V37.0295C58.7456 37.1876 58.7934 37.3129 58.8992 37.4217C59.0006 37.5276 59.111 37.5753 59.2556 37.5753H59.2854C59.2929 37.5753 59.3019 37.5753 59.3093 37.5738C59.3197 37.5738 59.3287 37.5738 59.3391 37.5723C59.4733 37.5664 59.5822 37.5157 59.6806 37.4143C59.7895 37.3009 59.8417 37.1712 59.8417 37.0057V35.9425C59.9565 36.0036 60.0713 36.0677 60.1817 36.1363C60.3129 36.2139 60.4441 36.3004 60.5709 36.3883C60.6037 36.4107 60.6365 36.4346 60.6693 36.4584C60.802 36.5539 60.9317 36.6567 61.0585 36.7626C61.1927 36.8745 61.3209 36.9908 61.4462 37.1116Z" fill="#009298"/>
<path d="M59.6805 37.4215C59.5821 37.5229 59.4732 37.5736 59.339 37.5796C59.4553 37.5691 59.5492 37.5214 59.6372 37.429C59.7416 37.3201 59.7908 37.1948 59.7908 37.0368V35.9229C59.8072 35.9318 59.8251 35.9407 59.8415 35.9497V37.0129C59.8415 37.1784 59.7893 37.3082 59.6805 37.4215Z" fill="#009298"/>
<path d="M60.8391 38.5625C60.8317 38.5715 60.8227 38.5789 60.8153 38.5879C60.3947 39.0158 59.8773 39.235 59.2853 39.235H59.2555C58.659 39.235 58.143 39.0158 57.7195 38.5879C57.302 38.1614 57.0887 37.638 57.0887 37.0325V35.1506C57.0977 35.1506 57.1052 35.1521 57.1141 35.1536V37.0087C57.1141 37.6126 57.3273 38.1345 57.7464 38.5625C58.1684 38.9905 58.6843 39.2082 59.2808 39.2082H59.3091C59.9026 39.2082 60.4186 38.9905 60.8391 38.5625Z" fill="#009298"/>
<path d="M54.4838 38.3973C54.4838 38.5569 54.442 38.706 54.3615 38.8357C54.36 38.8372 54.36 38.8402 54.357 38.8417C54.3302 38.8834 54.2974 38.9237 54.2616 38.961C54.102 39.1205 53.9037 39.2025 53.6815 39.2025H51.0167C50.8586 39.1966 50.723 39.1578 50.5992 39.0847L50.5858 39.0758C50.4888 39.0117 50.4083 38.9311 50.3472 38.8372C50.4232 38.6955 50.5008 38.5598 50.5873 38.4256C50.9586 37.8336 51.4149 37.3028 51.9413 36.845C52.0248 36.7734 52.1113 36.7018 52.1992 36.6317C52.4513 36.4319 52.7152 36.25 52.9941 36.0904C53.2043 35.9651 53.419 35.8533 53.6383 35.7549L52.5109 37.5712H52.5333L52.5318 37.5727H53.6576C53.8828 37.5727 54.0841 37.6547 54.2422 37.8127C54.4017 37.9783 54.4838 38.1781 54.4838 38.3973Z" fill="#009298"/>
<path d="M52.5334 37.5861H52.511L53.6383 35.7698C53.6488 35.7638 53.6607 35.7594 53.6711 35.7549L52.5334 37.5861Z" fill="#009298"/>
<path d="M54.3571 38.8482C54.3273 38.8974 54.29 38.9452 54.2482 38.9884C54.0857 39.1524 53.8829 39.2359 53.6577 39.2359H51.0153C50.8543 39.23 50.7156 39.1897 50.5918 39.1151C50.4844 39.0466 50.398 38.963 50.3353 38.8676C50.3398 38.8602 50.3443 38.8512 50.3473 38.8438C50.4084 38.9377 50.4889 39.0182 50.5858 39.0823L50.5993 39.0913C50.723 39.1644 50.8587 39.2031 51.0168 39.2091H53.6816C53.9038 39.2091 54.1021 39.1271 54.2617 38.9675C54.2974 38.9302 54.3303 38.89 54.3571 38.8482Z" fill="#009298"/>
</svg>
